<svg width="1425" height="406" viewBox="0 0 1425 406" fill="none" xmlns="http://www.w3.org/2000/svg">
<path fill-rule="evenodd" clip-rule="evenodd" d="M73.6368 0.917746C39.2499 2.36646 28.3656 5.63406 17.0582 17.9029C5.81203 30.1049 3.08746 43.7139 1.24649 96.8834C-0.441404 145.598 -0.408007 272.325 1.30355 316.069C2.81055 354.629 4.55411 365.656 11.0747 377.89C18.984 392.734 30.1898 399.131 54.5134 402.695C68.4048 404.731 90.8206 404.994 254.533 405.053C449.138 405.122 459.495 404.831 478.024 398.772C492.365 394.082 502.627 383.202 506.98 368.073C510.974 354.193 511.955 323.703 511.946 213.782C511.935 71.9436 511.122 60.795 500.107 51.1216C491.089 43.2031 494.33 43.3117 276.532 43.6123C91.0168 43.8683 77.7989 43.7306 75.2329 41.5081C71.0027 37.8439 70.4266 33.7858 73.5673 29.7918C75.3129 27.573 77.977 26.274 80.8001 26.265L273.299 25.6516C412.828 25.2077 470.709 24.5814 471.783 23.5071C473.986 21.3041 471.026 13.2895 466.358 8.81677C464.27 6.81697 460.058 4.0601 456.997 2.68793C451.748 0.337431 441.386 0.184342 275.405 0.0145602C178.591 -0.0842472 87.7954 0.322118 73.6368 0.917746ZM203.123 84.5994C224.151 88.2705 230.181 94.1795 230.181 111.109C230.181 122.736 227.028 129.327 219.698 133.025C213.972 135.914 197.573 136.264 174.893 133.981C155.851 132.064 141.446 133.814 136.635 138.626C133.846 141.414 133.072 144.184 131.852 155.755C130.185 171.553 131.276 176.468 136.682 177.502C138.56 177.861 147.761 177.556 157.126 176.824C176.67 175.295 195.25 177.046 202.126 181.06C208.997 185.074 212.092 191.736 212.092 202.509C212.092 213.805 209.483 218.105 199.631 223.04C193.329 226.196 191.118 226.455 166.307 226.933C151.692 227.216 138.373 227.73 136.711 228.075C132.285 228.995 130.273 236.477 131.397 247.846C133.675 270.9 135.519 272.615 157.763 272.375C166.215 272.285 178.394 271.458 184.828 270.54C218.571 265.72 231.729 270.83 234.332 289.762C236.278 303.914 230.026 314.851 217.901 318.499C190.654 326.698 128.977 326.722 102.163 318.543C85.5328 313.472 80.9729 306.524 76.4769 279.403C66.1575 217.156 70.8831 119.15 85.1864 98.7539C90.5715 91.0747 108.036 85.7864 138.342 82.6594C154.202 81.0214 188.521 82.0498 203.123 84.5994ZM394.379 84.7121C419.968 87.6471 427.354 90.6753 432.061 100.159C436.439 108.98 435.648 125.375 430.287 136.999C423.327 152.088 405.93 176.344 357.837 238.022C342.475 257.724 339.804 262.14 341.548 264.96C343.973 268.885 350.101 269.309 378.874 267.543C427.983 264.53 438.568 268.643 440.644 291.545C441.55 301.541 438.356 310.92 432.664 314.974C424.31 320.923 390.44 324.728 345.842 324.728C301.692 324.728 278.689 321.524 269.935 314.158C264.165 309.303 260.909 298 261.862 286.136C263.149 270.093 267.578 263.41 332.189 180.028C347.043 160.858 357.504 146.12 357.504 144.364C357.504 138.092 355.325 137.745 322.114 138.742C286.921 139.797 279.161 138.845 272.057 132.607C260.242 122.232 262.186 96.2823 275.28 89.6024C290.46 81.8578 348.67 79.4669 394.379 84.7121Z" fill="url(#paint0_linear_3_222)"/>
<path d="M1401.45 325.833C1381.76 325.833 1367.16 321.685 1357.65 313.389C1348.13 305.093 1343.38 291.432 1343.38 272.406V180.816H1318.65V144.313H1343.38V100.841H1392.32V144.313H1424.85V180.816H1392.32V267.096C1392.32 275.392 1394.15 281.2 1397.8 284.518C1401.56 287.726 1407.09 289.33 1414.39 289.33C1416.61 289.33 1418.54 289.275 1420.2 289.164C1421.86 288.943 1423.41 288.722 1424.85 288.5V324.008C1422.19 324.451 1418.87 324.838 1414.89 325.17C1411.02 325.612 1406.54 325.833 1401.45 325.833Z" fill="black"/>
<path d="M1226.67 325.832C1208.53 325.832 1192.93 322.127 1179.88 314.716C1166.82 307.194 1156.76 296.519 1149.68 282.692C1142.71 268.865 1139.22 252.494 1139.22 233.579V233.413C1139.22 214.498 1142.71 198.126 1149.68 184.299C1156.76 170.362 1166.66 159.632 1179.38 152.11C1192.21 144.478 1207.31 140.661 1224.68 140.661C1242.04 140.661 1257.03 144.367 1269.64 151.778C1282.36 159.079 1292.15 169.422 1299.01 182.806C1305.98 196.191 1309.46 211.843 1309.46 229.762V244.696H1162.95V214.166H1286.56L1263.5 242.705V224.121C1263.5 213.723 1261.9 205.04 1258.69 198.071C1255.48 190.992 1251 185.682 1245.25 182.142C1239.61 178.603 1233.03 176.833 1225.5 176.833C1217.98 176.833 1211.29 178.658 1205.43 182.308C1199.68 185.959 1195.14 191.323 1191.82 198.403C1188.61 205.372 1187.01 213.944 1187.01 224.121V242.87C1187.01 252.715 1188.61 261.122 1191.82 268.091C1195.14 275.06 1199.84 280.425 1205.93 284.186C1212.01 287.836 1219.25 289.661 1227.66 289.661C1234.3 289.661 1240.05 288.61 1244.92 286.508C1249.78 284.407 1253.77 281.752 1256.86 278.544C1259.96 275.336 1262.06 272.073 1263.17 268.755L1263.5 267.759H1307.97L1307.47 269.584C1306.14 276.111 1303.54 282.692 1299.67 289.329C1295.8 295.966 1290.55 302.05 1283.91 307.581C1277.38 313.112 1269.36 317.536 1259.85 320.855C1250.45 324.173 1239.39 325.832 1226.67 325.832Z" fill="black"/>
<path d="M1064.56 322.182V82.7537H1113.01V322.182H1064.56Z" fill="black"/>
<path d="M982.261 322.182V82.7537H1030.71V322.182H982.261Z" fill="black"/>
<path d="M846.613 325.003C834.777 325.003 824.379 322.735 815.419 318.2C806.459 313.554 799.435 307.194 794.347 299.119C789.369 290.933 786.88 281.641 786.88 271.243V270.912C786.88 260.071 789.59 250.835 795.01 243.202C800.431 235.459 808.284 229.375 818.572 224.951C828.859 220.526 841.358 217.816 856.07 216.82L925.427 212.506V242.705L863.371 246.687C854.079 247.24 847 249.452 842.133 253.324C837.266 257.085 834.832 262.118 834.832 268.423V268.755C834.832 275.281 837.321 280.425 842.299 284.186C847.276 287.836 853.969 289.661 862.375 289.661C869.566 289.661 875.981 288.278 881.623 285.513C887.375 282.637 891.855 278.765 895.062 273.898C898.381 268.921 900.04 263.334 900.04 257.14V203.215C900.04 195.361 897.551 189.166 892.574 184.631C887.596 179.985 880.351 177.662 870.838 177.662C861.767 177.662 854.577 179.543 849.268 183.304C843.958 187.065 840.695 191.821 839.478 197.573L839.146 199.067H794.844L795.01 197.075C795.895 186.125 799.49 176.39 805.795 167.873C812.211 159.355 821.06 152.719 832.343 147.962C843.737 143.095 857.232 140.661 872.829 140.661C888.204 140.661 901.534 143.15 912.816 148.128C924.099 152.995 932.838 159.909 939.032 168.868C945.337 177.828 948.49 188.282 948.49 200.228V322.182H900.04V295.634H899.045C895.726 301.718 891.412 306.972 886.103 311.397C880.904 315.711 874.986 319.085 868.349 321.518C861.712 323.841 854.466 325.003 846.613 325.003Z" fill="black"/>
<path d="M571.788 322.181L524.5 144.311H573.281L600.161 276.221H601.157L632.682 144.311H679.141L710.832 276.221H711.828L738.873 144.311H786.66L739.537 322.181H687.935L655.746 196.411H654.75L622.727 322.181H571.788Z" fill="black"/>
<defs>
<linearGradient id="paint0_linear_3_222" x1="255.973" y1="-0.000244141" x2="255.973" y2="405.06" gradientUnits="userSpaceOnUse">
<stop stop-color="#00C0E8"/>
<stop offset="1" stop-color="#0B53BF"/>
</linearGradient>
</defs>
</svg>
