<svg width="512" height="512" viewBox="0 0 512 512" fill="none" xmlns="http://www.w3.org/2000/svg">
<path fill-rule="evenodd" clip-rule="evenodd" d="M114.102 99.1181C87.3419 100.245 78.8715 102.788 70.0719 112.335C61.3199 121.83 59.1996 132.419 57.7669 173.793C56.4534 211.699 56.4794 310.31 57.8113 344.349C58.9841 374.354 60.341 382.935 65.4154 392.454C71.5706 404.004 80.2912 408.983 99.2202 411.756C110.031 413.34 127.475 413.545 254.879 413.59C406.324 413.644 414.384 413.418 428.804 408.703C439.965 405.054 447.951 396.588 451.338 384.816C454.446 374.015 455.21 350.29 455.203 264.756C455.194 154.386 454.562 145.711 445.99 138.184C438.972 132.022 441.494 132.106 272 132.34C127.628 132.54 117.341 132.432 115.345 130.703C112.053 127.852 111.604 124.694 114.048 121.586C115.407 119.86 117.48 118.849 119.677 118.842L269.483 118.364C378.067 118.019 423.111 117.532 423.947 116.696C425.662 114.981 423.358 108.745 419.725 105.265C418.101 103.709 414.823 101.563 412.441 100.496C408.356 98.6666 400.292 98.5474 271.123 98.4153C195.78 98.3384 125.121 98.6547 114.102 99.1181ZM214.871 164.234C231.235 167.091 235.928 171.689 235.928 184.862C235.928 193.91 233.475 199.038 227.77 201.915C223.314 204.164 210.552 204.436 192.902 202.659C178.083 201.168 166.873 202.529 163.128 206.274C160.958 208.443 160.356 210.599 159.407 219.602C158.109 231.895 158.958 235.72 163.165 236.525C164.627 236.804 171.787 236.567 179.075 235.997C194.284 234.807 208.744 236.17 214.095 239.294C219.442 242.417 221.851 247.601 221.851 255.983C221.851 264.773 219.82 268.119 212.153 271.959C207.249 274.415 205.528 274.617 186.22 274.989C174.846 275.209 164.481 275.609 163.188 275.877C159.743 276.593 158.177 282.416 159.052 291.262C160.825 309.201 162.26 310.535 179.571 310.349C186.149 310.279 195.626 309.636 200.634 308.921C226.893 305.171 237.133 309.147 239.159 323.879C240.673 334.891 235.807 343.401 226.372 346.24C205.168 352.62 157.169 352.638 136.302 346.274C123.36 342.328 119.812 336.921 116.313 315.818C108.282 267.381 111.959 191.119 123.091 175.248C127.281 169.273 140.873 165.158 164.457 162.724C176.8 161.45 203.508 162.25 214.871 164.234ZM363.71 164.322C383.624 166.605 389.372 168.962 393.035 176.342C396.442 183.205 395.827 195.963 391.654 205.008C386.238 216.749 372.699 235.624 335.272 283.618C323.317 298.948 321.239 302.384 322.596 304.579C324.483 307.633 329.252 307.964 351.643 306.589C389.861 304.245 398.099 307.445 399.714 325.266C400.419 333.045 397.934 340.342 393.504 343.497C387.003 348.126 360.645 351.087 325.938 351.087C291.58 351.087 273.678 348.594 266.866 342.862C262.375 339.084 259.841 330.289 260.583 321.057C261.584 308.573 265.031 303.373 315.312 238.49C326.872 223.573 335.013 212.105 335.013 210.739C335.013 205.858 333.318 205.589 307.472 206.364C280.085 207.185 274.045 206.444 268.517 201.591C259.322 193.518 260.835 173.325 271.025 168.127C282.838 162.101 328.138 160.24 363.71 164.322Z" fill="url(#paint0_linear_3_258)"/>
<defs>
<linearGradient id="paint0_linear_3_258" x1="256" y1="98.4038" x2="256" y2="413.596" gradientUnits="userSpaceOnUse">
<stop stop-color="#00C0E8"/>
<stop offset="1" stop-color="#0B53BF"/>
</linearGradient>
</defs>
</svg>
