<svg width="260" height="260" viewBox="0 0 260 260" fill="none" xmlns="http://www.w3.org/2000/svg">
<path d="M20 81.1202V32.224C20 25.4729 25.4729 20 32.224 20H81.1202C87.8713 20 93.3442 25.4729 93.3442 32.224C93.3442 38.9752 87.8713 44.4481 81.1202 44.4481H44.4481V81.1202C44.4481 87.8713 38.9752 93.3442 32.224 93.3442C25.4729 93.3442 20 87.8713 20 81.1202Z" fill="black"/>
<path d="M20 178.912C20 172.16 25.4729 166.688 32.224 166.688C38.9752 166.688 44.4481 172.16 44.4481 178.912V215.584H81.1202C87.8713 215.584 93.3442 221.057 93.3442 227.808C93.3442 234.559 87.8713 240.032 81.1202 240.032H32.224C25.4729 240.032 20 234.559 20 227.808V178.912Z" fill="black"/>
<path d="M215.585 178.913C215.585 172.161 221.058 166.688 227.809 166.688C234.56 166.688 240.033 172.161 240.033 178.913V227.809C240.033 234.56 234.56 240.033 227.809 240.033H178.913C172.161 240.033 166.688 234.56 166.688 227.809C166.688 221.058 172.161 215.585 178.913 215.585H215.585V178.913ZM215.585 81.1202V44.4481H178.913C172.161 44.4481 166.688 38.9752 166.688 32.224C166.688 25.4729 172.161 20 178.913 20H227.809C234.56 20 240.033 25.4729 240.033 32.224V81.1202C240.033 87.8713 234.56 93.3442 227.809 93.3442C221.058 93.3442 215.585 87.8713 215.585 81.1202Z" fill="black"/>
<path d="M105.569 68.8965C112.32 68.8965 117.793 74.3694 117.793 81.1205C117.793 87.8717 112.32 93.3445 105.569 93.3446H80.8602V117.793H93.5975C100.348 117.793 105.822 123.266 105.822 130.017C105.822 136.768 100.348 142.24 93.5975 142.241H80.8602V166.689H105.569C112.32 166.689 117.793 172.162 117.793 178.913C117.793 185.664 112.32 191.137 105.569 191.137H68.6361C61.885 191.137 56.4121 185.664 56.4121 178.913V81.1205C56.4121 74.3694 61.885 68.8965 68.6361 68.8965H105.569ZM191.428 68.8965C195.443 68.8965 199.204 70.8676 201.487 74.1705C203.769 77.4732 204.283 81.6866 202.864 85.4419L172.154 166.689H191.428C198.179 166.689 203.652 172.162 203.652 178.913C203.652 185.664 198.179 191.137 191.428 191.137H154.465C150.45 191.137 146.691 189.166 144.408 185.863C142.126 182.56 141.612 178.347 143.031 174.591L173.741 93.3446H154.465C147.714 93.3446 142.241 87.8717 142.241 81.1205C142.241 74.3694 147.714 68.8965 154.465 68.8965H191.428Z" fill="black"/>
</svg>
