<svg width="131" height="131" viewBox="0 0 131 131" fill="none" xmlns="http://www.w3.org/2000/svg">
<path d="M71.6672 117.956C70.668 117.956 70.1685 117.457 70.1685 116.457V106.416C70.1685 105.916 70.3183 105.317 70.6181 104.617L105.389 26.2338C105.489 26.0339 105.489 25.8841 105.389 25.7842C105.289 25.5843 105.139 25.4844 104.939 25.4844H71.6672C70.668 25.4844 70.1685 24.9848 70.1685 23.9857V14.5437C70.1685 13.5445 70.668 13.0449 71.6672 13.0449H119.477C120.476 13.0449 120.976 13.5445 120.976 14.5437V24.5852C120.976 24.9848 120.826 25.5843 120.526 26.3837L85.6054 104.767C85.5055 104.967 85.5055 105.167 85.6054 105.367C85.7053 105.467 85.8552 105.517 86.055 105.517H119.477C120.476 105.517 120.976 106.016 120.976 107.015V116.457C120.976 117.457 120.476 117.956 119.477 117.956H71.6672Z" fill="#16A34A"/>
<path d="M60.2315 23.9857C60.2315 24.9848 59.7319 25.4844 58.7328 25.4844H25.0113C24.6116 25.4844 24.4118 25.6842 24.4118 26.0839V58.6064C24.4118 59.0061 24.6116 59.2059 25.0113 59.2059H45.6938C46.6929 59.2059 47.1925 59.7055 47.1925 60.7046V70.1466C47.1925 71.1458 46.6929 71.6454 45.6938 71.6454H25.0113C24.6116 71.6454 24.4118 71.8452 24.4118 72.2449V104.917C24.4118 105.317 24.6116 105.517 25.0113 105.517H58.7328C59.7319 105.517 60.2315 106.016 60.2315 107.015V116.457C60.2315 117.457 59.7319 117.956 58.7328 117.956H11.5227C10.5235 117.956 10.0239 117.457 10.0239 116.457V14.5437C10.0239 13.5445 10.5235 13.0449 11.5227 13.0449H58.7328C59.7319 13.0449 60.2315 13.5445 60.2315 14.5437V23.9857Z" fill="#16A34A"/>
</svg>
