<svg width="892" height="222" viewBox="0 0 892 222" fill="none" xmlns="http://www.w3.org/2000/svg">
<path d="M891.11 81.1564C891.11 82.2009 890.692 83.1409 889.856 83.9765C889.23 84.6032 888.394 84.9165 887.35 84.9165H867.922C866.878 84.9165 866.356 85.4388 866.356 86.4833V168.579C866.356 175.891 867.713 181.009 870.429 183.933C873.145 186.649 877.218 187.902 882.649 187.693H884.843C885.887 187.693 886.723 188.111 887.35 188.947C888.185 189.573 888.603 190.409 888.603 191.453V215.581C888.603 216.625 888.185 217.565 887.35 218.401C886.723 219.028 885.887 219.341 884.843 219.341H874.189C859.984 219.341 849.226 216.73 841.915 211.507C834.812 206.285 831.261 196.467 831.261 182.053V86.4833C831.261 85.4388 830.739 84.9165 829.694 84.9165H818.727C817.683 84.9165 816.743 84.6032 815.907 83.9765C815.281 83.1409 814.967 82.2009 814.967 81.1564V62.9825C814.967 61.938 815.281 61.1024 815.907 60.4757C816.743 59.6402 817.683 59.2224 818.727 59.2224H829.694C830.739 59.2224 831.261 58.7001 831.261 57.6556V23.1878C831.261 22.1434 831.575 21.3078 832.201 20.6811C833.037 19.8455 833.977 19.4277 835.021 19.4277H862.595C863.64 19.4277 864.476 19.8455 865.102 20.6811C865.938 21.3078 866.356 22.1434 866.356 23.1878V57.6556C866.356 58.7001 866.878 59.2224 867.922 59.2224H887.35C888.394 59.2224 889.23 59.6402 889.856 60.4757C890.692 61.1024 891.11 61.938 891.11 62.9825V81.1564Z" fill="black"/>
<path d="M799.3 148.842C799.3 149.886 798.882 150.826 798.047 151.662C797.42 152.289 796.584 152.602 795.54 152.602H726.291C725.247 152.602 724.724 153.124 724.724 154.169V168.269C724.724 174.745 726.5 180.072 730.051 184.25C733.602 188.428 738.198 190.516 743.838 190.516C748.643 190.516 752.716 189.054 756.059 186.13C759.61 182.996 761.908 179.027 762.952 174.223C763.579 172.134 764.937 171.089 767.026 171.089L794.913 172.343C795.958 172.343 796.793 172.76 797.42 173.596C798.256 174.223 798.569 175.163 798.36 176.416C796.898 191.039 791.571 202.319 782.38 210.257C773.188 217.986 760.341 221.851 743.838 221.851C726.709 221.851 713.131 217.36 703.104 208.377C693.286 199.186 688.376 186.756 688.376 171.089V107.48C688.376 92.231 693.286 80.0106 703.104 70.8192C713.131 61.4189 726.709 56.7188 743.838 56.7188C760.968 56.7188 774.442 61.4189 784.26 70.8192C794.287 80.0106 799.3 92.231 799.3 107.48V148.842ZM743.838 88.0531C738.198 88.0531 733.602 90.1421 730.051 94.32C726.5 98.4979 724.724 103.825 724.724 110.301V124.401C724.724 125.445 725.247 125.968 726.291 125.968H761.699C762.743 125.968 763.266 125.445 763.266 124.401V110.301C763.266 103.616 761.49 98.289 757.939 94.32C754.388 90.1421 749.687 88.0531 743.838 88.0531Z" fill="black"/>
<path d="M632.287 219.341C631.243 219.341 630.303 219.027 629.467 218.4C628.841 217.565 628.527 216.625 628.527 215.58V3.76014C628.527 2.71566 628.841 1.88007 629.467 1.25338C630.303 0.417798 631.243 0 632.287 0H661.115C662.16 0 662.995 0.417798 663.622 1.25338C664.457 1.88007 664.875 2.71566 664.875 3.76014V215.58C664.875 216.625 664.457 217.565 663.622 218.4C662.995 219.027 662.16 219.341 661.115 219.341H632.287Z" fill="black"/>
<path d="M567.216 219.341C566.172 219.341 565.232 219.027 564.396 218.4C563.769 217.565 563.456 216.625 563.456 215.58V3.76014C563.456 2.71566 563.769 1.88007 564.396 1.25338C565.232 0.417798 566.172 0 567.216 0H596.044C597.088 0 597.924 0.417798 598.551 1.25338C599.386 1.88007 599.804 2.71566 599.804 3.76014V215.58C599.804 216.625 599.386 217.565 598.551 218.4C597.924 219.027 597.088 219.341 596.044 219.341H567.216Z" fill="black"/>
<path d="M484.494 56.7188C500.997 56.7188 514.366 61.5234 524.602 71.1326C534.838 80.7418 539.956 93.38 539.956 109.047V215.584C539.956 216.628 539.538 217.568 538.703 218.404C538.076 219.031 537.24 219.344 536.196 219.344H507.368C506.324 219.344 505.384 219.031 504.548 218.404C503.921 217.568 503.608 216.628 503.608 215.584V209.63C503.608 209.004 503.399 208.586 502.981 208.377C502.564 208.168 502.146 208.377 501.728 209.004C494.417 217.568 483.763 221.851 469.767 221.851C457.86 221.851 447.311 218.509 438.119 211.824C429.137 204.93 424.646 192.501 424.646 174.536C424.646 155.735 430.077 142.366 440.939 134.428C452.011 126.49 466.947 122.521 485.748 122.521H502.041C503.086 122.521 503.608 121.999 503.608 120.954V112.807C503.608 105.287 501.728 99.3335 497.968 94.9467C494.208 90.351 489.508 88.0531 483.867 88.0531C479.481 88.0531 475.825 89.5154 472.9 92.4399C469.976 95.1556 468.2 98.9157 467.574 103.72C467.365 106.227 466.007 107.48 463.5 107.48H433.106C430.599 107.48 429.45 106.227 429.659 103.72C430.703 89.5154 436.239 78.1306 446.266 69.5659C456.502 61.0011 469.245 56.7188 484.494 56.7188ZM479.794 191.77C486.061 191.77 491.597 189.785 496.401 185.816C501.206 181.847 503.608 176.312 503.608 169.209V151.349C503.608 150.304 503.086 149.782 502.041 149.782H485.748C478.645 149.782 472.9 151.766 468.514 155.735C464.127 159.495 461.933 165.031 461.933 172.343C461.933 178.818 463.605 183.727 466.947 187.07C470.289 190.203 474.572 191.77 479.794 191.77Z" fill="black"/>
<path d="M275.22 219.342C272.922 219.342 271.564 218.193 271.146 215.895L237.619 62.9836V61.7303C237.619 59.8502 238.768 58.9102 241.065 58.9102H268.64C271.146 58.9102 272.504 60.0591 272.713 62.3569L289.007 159.807C289.216 160.433 289.529 160.747 289.947 160.747C290.365 160.747 290.678 160.433 290.887 159.807L308.121 62.3569C308.33 60.0591 309.688 58.9102 312.194 58.9102H336.635C339.142 58.9102 340.5 60.0591 340.709 62.3569L358.256 160.12C358.465 160.747 358.778 161.06 359.196 161.06C359.614 161.06 359.927 160.747 360.136 160.12L376.743 62.3569C376.952 60.0591 378.31 58.9102 380.817 58.9102L408.078 59.5368C410.793 59.5368 411.838 60.8947 411.211 63.6103L377.683 215.895C377.265 218.193 375.908 219.342 373.61 219.342H345.409C342.902 219.342 341.544 218.193 341.335 215.895L324.728 124.399C324.519 123.772 324.206 123.459 323.788 123.459C323.37 123.459 323.057 123.772 322.848 124.399L306.554 215.895C306.345 218.193 304.988 219.342 302.481 219.342H275.22Z" fill="black"/>
<path d="M3.76037 219.341C2.7159 219.341 1.77586 219.027 0.940276 218.4C0.31359 217.565 0.000244141 216.625 0.000244141 215.58V3.76014C0.000244141 2.71566 0.31359 1.88007 0.940276 1.25338C1.77586 0.417798 2.7159 0 3.76037 0H32.588C33.6325 0 34.468 0.417798 35.0947 1.25338C35.9303 1.88007 36.3481 2.71566 36.3481 3.76014V215.58C36.3481 216.625 35.9303 217.565 35.0947 218.4C34.468 219.027 33.6325 219.341 32.588 219.341H3.76037Z" fill="#0B53BF"/>
<path d="M8.69073e-05 3.76012C8.6953e-05 2.71565 0.145568 1.77561 0.436529 0.940028C0.824477 0.313341 1.26092 -4.39629e-06 1.74586 -4.3751e-06L100.091 -7.63102e-08C100.576 -5.5113e-08 100.964 0.313345 101.254 0.940032C101.642 1.77562 101.836 2.71565 101.836 3.76013L101.836 32.5878C101.836 33.6322 101.642 34.4678 101.254 35.0945C100.964 35.9301 100.576 36.3479 100.091 36.3479L1.74585 36.3479C1.26092 36.3479 0.824476 35.9301 0.436528 35.0945C0.145567 34.4678 8.56016e-05 33.6322 8.56473e-05 32.5878L8.69073e-05 3.76012Z" fill="#0B53BF"/>
<path d="M8.69073e-05 186.752C8.6953e-05 185.708 0.145568 184.768 0.436529 183.932C0.824477 183.306 1.26092 182.992 1.74586 182.992L100.091 182.992C100.576 182.992 100.964 183.306 101.254 183.932C101.642 184.768 101.836 185.708 101.836 186.752L101.836 215.58C101.836 216.624 101.642 217.46 101.254 218.087C100.964 218.922 100.576 219.34 100.091 219.34L1.74585 219.34C1.26092 219.34 0.824476 218.922 0.436528 218.087C0.145567 217.46 8.56016e-05 216.624 8.56473e-05 215.58L8.69073e-05 186.752Z" fill="#0B53BF"/>
<path d="M-7.52983e-05 95.2543C-7.52526e-05 94.2098 0.11668 93.2698 0.35019 92.4342C0.661536 91.8075 1.0118 91.4941 1.40098 91.4941L80.3272 91.4941C80.7164 91.4941 81.0277 91.8075 81.2612 92.4342C81.5726 93.2698 81.7283 94.2098 81.7283 95.2543L81.7283 124.082C81.7283 125.126 81.5726 125.962 81.2612 126.589C81.0277 127.424 80.7164 127.842 80.3272 127.842L1.40098 127.842C1.0118 127.842 0.661534 127.424 0.350188 126.589C0.116679 125.962 -7.66041e-05 125.126 -7.65584e-05 124.082L-7.52983e-05 95.2543Z" fill="#0B53BF"/>
<path fill-rule="evenodd" clip-rule="evenodd" d="M218.4 33.5274L217.108 36.3528L158.135 182.993L217.594 182.993C218.079 182.993 218.467 183.304 218.758 183.931C219.146 184.768 219.34 185.706 219.34 186.752L219.34 215.582C219.34 216.627 219.146 217.459 218.758 218.086C218.616 218.494 218.452 218.8 218.264 219.009C218.066 219.228 217.843 219.341 217.594 219.341L119.249 219.341C118.764 219.341 118.328 218.922 117.94 218.086C117.787 217.754 117.674 217.367 117.602 216.923C117.568 216.719 117.543 216.5 117.526 216.27C117.511 216.051 117.503 215.822 117.503 215.582L117.503 190.51C117.503 189.572 117.603 188.664 117.801 187.787C117.956 187.109 118.17 186.451 118.443 185.813L119.741 182.993L178.719 36.3528L119.249 36.3477C119.028 36.3477 118.817 36.261 118.617 36.0876C118.377 35.8785 118.151 35.547 117.94 35.0931C117.649 34.4658 117.503 33.6345 117.503 32.589L117.503 3.75869C117.503 2.7132 117.649 1.7748 117.94 0.938399C118.328 0.3111 118.764 -7.63128e-08 119.249 -7.63128e-08L217.594 -7.63114e-08C218.079 -7.63114e-08 218.467 0.311099 218.758 0.938399C219.146 1.7748 219.34 2.7132 219.34 3.75869L219.34 28.8252C219.34 30.2889 219.027 31.8546 218.4 33.5274Z" fill="#0B53BF"/>
</svg>
