<svg width="1160" height="380" viewBox="0 0 1160 380" fill="none" xmlns="http://www.w3.org/2000/svg">
<path fill-rule="evenodd" clip-rule="evenodd" d="M94.7441 40.6506C69.2735 41.7236 61.2113 44.1436 52.8358 53.2303C44.5057 62.2675 42.4876 72.3467 41.124 111.726C39.8737 147.805 39.8985 241.663 41.1662 274.061C42.2825 302.62 43.574 310.787 48.4038 319.848C54.2623 330.841 62.5626 335.58 80.5792 338.219C90.8687 339.727 107.472 339.922 228.735 339.965C372.881 340.017 380.552 339.801 394.277 335.314C404.9 331.84 412.501 323.782 415.725 312.577C418.683 302.297 419.41 279.716 419.404 198.305C419.395 93.2545 418.794 84.9976 410.634 77.8331C403.955 71.9685 406.355 72.0488 245.031 72.2715C107.618 72.4611 97.827 72.3591 95.9264 70.7131C92.793 67.9992 92.3663 64.9937 94.6926 62.0356C95.9856 60.3923 97.9589 59.4302 100.05 59.4235L242.635 58.9692C345.986 58.6405 388.859 58.1766 389.655 57.3809C391.286 55.7493 389.094 49.8135 385.636 46.5009C384.09 45.0197 380.97 42.9779 378.702 41.9617C374.815 40.2208 367.139 40.1074 244.196 39.9817C172.485 39.9085 105.232 40.2095 94.7441 40.6506ZM190.656 102.628C206.231 105.347 210.698 109.723 210.698 122.262C210.698 130.873 208.362 135.755 202.933 138.493C198.691 140.633 186.545 140.893 169.745 139.201C155.641 137.782 144.971 139.077 141.407 142.642C139.342 144.706 138.768 146.758 137.865 155.328C136.63 167.028 137.438 170.668 141.442 171.434C142.834 171.7 149.649 171.474 156.585 170.932C171.061 169.8 184.824 171.096 189.917 174.07C195.007 177.042 197.299 181.976 197.299 189.955C197.299 198.321 195.366 201.506 188.069 205.161C183.401 207.499 181.763 207.69 163.386 208.045C152.56 208.254 142.694 208.634 141.464 208.89C138.185 209.571 136.695 215.113 137.528 223.533C139.215 240.608 140.58 241.878 157.057 241.7C163.318 241.633 172.338 241.021 177.104 240.341C202.098 236.771 211.844 240.556 213.773 254.578C215.214 265.059 210.583 273.159 201.602 275.861C181.42 281.934 135.735 281.951 115.874 275.894C103.556 272.138 100.178 266.992 96.8478 246.905C89.2041 200.803 92.7044 128.217 103.299 113.111C107.288 107.424 120.224 103.507 142.672 101.191C154.42 99.9778 179.84 100.74 190.656 102.628ZM332.321 102.711C351.274 104.885 356.745 107.128 360.232 114.152C363.475 120.685 362.889 132.827 358.918 141.437C353.762 152.612 340.877 170.577 305.254 216.257C293.875 230.849 291.897 234.119 293.188 236.209C294.985 239.115 299.524 239.43 320.836 238.122C357.211 235.89 365.052 238.936 366.59 255.898C367.261 263.302 364.895 270.248 360.678 273.25C354.491 277.656 329.403 280.474 296.369 280.474C263.667 280.474 246.628 278.102 240.144 272.646C235.87 269.05 233.458 260.679 234.164 251.892C235.117 240.01 238.398 235.061 286.256 173.305C297.258 159.107 305.007 148.192 305.007 146.891C305.007 142.246 303.393 141.989 278.793 142.727C252.726 143.508 246.978 142.803 241.716 138.184C232.964 130.5 234.404 111.281 244.103 106.333C255.347 100.597 298.463 98.8265 332.321 102.711Z" fill="url(#paint0_linear_3583_35)"/>
<path d="M1119.8 174.552C1119.8 175.418 1119.45 176.198 1118.76 176.892C1118.24 177.412 1117.55 177.672 1116.68 177.672H1091.72C1090.85 177.672 1090.42 178.105 1090.42 178.972V234.092C1090.42 239.812 1091.55 244.058 1093.8 246.832C1096.23 249.605 1100.04 250.992 1105.24 250.992H1113.82C1114.69 250.992 1115.38 251.338 1115.9 252.032C1116.59 252.552 1116.94 253.245 1116.94 254.112V278.812C1116.94 280.718 1115.9 281.845 1113.82 282.192C1106.54 282.538 1101.34 282.712 1098.22 282.712C1083.83 282.712 1073.09 280.372 1065.98 275.692C1058.87 270.838 1055.23 261.825 1055.06 248.652V178.972C1055.06 178.105 1054.63 177.672 1053.76 177.672H1038.94C1038.07 177.672 1037.29 177.412 1036.6 176.892C1036.08 176.198 1035.82 175.418 1035.82 174.552V151.412C1035.82 150.545 1036.08 149.852 1036.6 149.332C1037.29 148.638 1038.07 148.292 1038.94 148.292H1053.76C1054.63 148.292 1055.06 147.858 1055.06 146.992V116.052C1055.06 115.185 1055.32 114.492 1055.84 113.972C1056.53 113.278 1057.31 112.932 1058.18 112.932H1087.3C1088.17 112.932 1088.86 113.278 1089.38 113.972C1090.07 114.492 1090.42 115.185 1090.42 116.052V146.992C1090.42 147.858 1090.85 148.292 1091.72 148.292H1116.68C1117.55 148.292 1118.24 148.638 1118.76 149.332C1119.45 149.852 1119.8 150.545 1119.8 151.412V174.552Z" fill="black"/>
<path d="M1024.65 201.331C1025.69 207.918 1026.04 215.285 1025.69 223.431C1025.52 225.511 1024.39 226.551 1022.31 226.551H941.969C940.929 226.551 940.583 226.985 940.929 227.851C941.449 231.318 942.403 234.785 943.789 238.251C948.296 247.958 957.483 252.811 971.349 252.811C982.443 252.638 991.196 248.131 997.609 239.291C998.303 238.251 999.083 237.731 999.949 237.731C1000.47 237.731 1001.08 238.078 1001.77 238.771L1020.49 257.231C1021.36 258.098 1021.79 258.878 1021.79 259.571C1021.79 259.918 1021.44 260.611 1020.75 261.651C1015.03 268.758 1007.66 274.305 998.649 278.291C989.636 282.105 979.756 284.011 969.009 284.011C954.103 284.011 941.449 280.631 931.049 273.871C920.823 267.111 913.456 257.665 908.949 245.531C905.309 236.865 903.489 225.511 903.489 211.471C903.489 201.938 904.789 193.531 907.389 186.251C911.376 173.945 918.309 164.151 928.189 156.871C938.243 149.591 950.116 145.951 963.809 145.951C981.143 145.951 995.009 150.978 1005.41 161.031C1015.98 171.085 1022.4 184.518 1024.65 201.331ZM964.069 177.671C953.149 177.671 945.956 182.785 942.489 193.011C941.796 195.265 941.189 198.038 940.669 201.331C940.669 202.198 941.103 202.631 941.969 202.631H986.949C987.989 202.631 988.336 202.198 987.989 201.331C987.123 196.305 986.689 193.878 986.689 194.051C985.129 188.851 982.356 184.865 978.369 182.091C974.556 179.145 969.789 177.671 964.069 177.671Z" fill="black"/>
<path d="M849.949 281.932C849.082 281.932 848.302 281.672 847.609 281.152C847.089 280.458 846.829 279.678 846.829 278.812V103.052C846.829 102.185 847.089 101.492 847.609 100.972C848.302 100.278 849.082 99.9316 849.949 99.9316H880.369C881.236 99.9316 881.929 100.278 882.449 100.972C883.142 101.492 883.489 102.185 883.489 103.052V278.812C883.489 279.678 883.142 280.458 882.449 281.152C881.929 281.672 881.236 281.932 880.369 281.932H849.949Z" fill="black"/>
<path d="M793.289 281.932C792.422 281.932 791.642 281.672 790.949 281.152C790.429 280.458 790.169 279.678 790.169 278.812V103.052C790.169 102.185 790.429 101.492 790.949 100.972C791.642 100.278 792.422 99.9316 793.289 99.9316H823.709C824.576 99.9316 825.269 100.278 825.789 100.972C826.482 101.492 826.829 102.185 826.829 103.052V278.812C826.829 279.678 826.482 280.458 825.789 281.152C825.269 281.672 824.576 281.932 823.709 281.932H793.289Z" fill="black"/>
<path d="M711.928 146.211C723.195 146.211 733.248 148.204 742.088 152.191C750.928 156.004 757.775 161.291 762.628 168.051C767.655 174.811 770.168 182.351 770.168 190.671V278.811C770.168 279.678 769.822 280.458 769.128 281.151C768.608 281.671 767.915 281.931 767.048 281.931H736.628C735.762 281.931 734.982 281.671 734.288 281.151C733.768 280.458 733.508 279.678 733.508 278.811V270.231C733.508 269.711 733.335 269.364 732.988 269.191C732.642 269.018 732.295 269.191 731.948 269.711C724.668 279.244 712.968 284.011 696.848 284.011C683.328 284.011 672.408 280.718 664.088 274.131C655.768 267.544 651.608 257.838 651.608 245.011C651.608 231.664 656.288 221.351 665.648 214.071C675.008 206.618 688.355 202.891 705.688 202.891H732.208C733.075 202.891 733.508 202.458 733.508 201.591V195.871C733.508 190.151 731.775 185.731 728.308 182.611C724.842 179.318 719.642 177.671 712.708 177.671C707.335 177.671 702.828 178.624 699.188 180.531C695.722 182.438 693.468 185.124 692.428 188.591C691.908 190.498 690.782 191.364 689.048 191.191L657.588 187.031C655.508 186.684 654.555 185.904 654.728 184.691C655.422 177.411 658.282 170.824 663.308 164.931C668.508 159.038 675.268 154.444 683.588 151.151C692.082 147.858 701.528 146.211 711.928 146.211ZM706.728 256.711C714.182 256.711 720.508 254.718 725.708 250.731C730.908 246.744 733.508 241.631 733.508 235.391V226.031C733.508 225.164 733.075 224.731 732.208 224.731H713.488C705.688 224.731 699.535 226.204 695.028 229.151C690.695 232.098 688.528 236.258 688.528 241.631C688.528 246.311 690.175 250.038 693.468 252.811C696.762 255.411 701.182 256.711 706.728 256.711Z" fill="black"/>
<path d="M490.743 281.931C488.837 281.931 487.623 281.065 487.103 279.331L449.663 151.671L449.403 150.631C449.403 148.898 450.357 148.031 452.263 148.031H483.723C485.63 148.031 486.843 148.898 487.363 150.631L506.083 229.151C506.257 229.671 506.517 229.931 506.863 229.931C507.21 229.931 507.47 229.671 507.643 229.151L527.143 150.631C527.663 148.898 528.877 148.031 530.783 148.031H558.083C559.99 148.031 561.203 148.898 561.723 150.631L582.263 229.411C582.437 229.931 582.697 230.191 583.043 230.191C583.39 230.191 583.65 229.931 583.823 229.411L604.103 150.631C604.623 148.898 605.837 148.031 607.743 148.031L638.943 148.551C639.983 148.551 640.677 148.898 641.023 149.591C641.543 150.111 641.717 150.891 641.543 151.931L603.583 279.331C603.063 281.065 601.937 281.931 600.203 281.931H568.743C566.837 281.931 565.623 281.065 565.103 279.331L545.083 209.651C544.91 209.131 544.65 208.871 544.303 208.871C543.957 208.871 543.697 209.131 543.523 209.651L525.843 279.331C525.323 281.065 524.11 281.931 522.203 281.931H490.743Z" fill="black"/>
<defs>
<linearGradient id="paint0_linear_3583_35" x1="229.802" y1="39.9707" x2="229.802" y2="339.971" gradientUnits="userSpaceOnUse">
<stop stop-color="#0088FF"/>
<stop offset="1" stop-color="#0B53BF"/>
</linearGradient>
</defs>
</svg>
