<svg width="1174" height="380" viewBox="0 0 1174 380" fill="none" xmlns="http://www.w3.org/2000/svg">
<path fill-rule="evenodd" clip-rule="evenodd" d="M94.8931 40.6213C69.4224 41.6943 61.3602 44.1143 52.9848 53.201C44.6546 62.2382 42.6365 72.3174 41.2729 111.696C40.0227 147.776 40.0474 241.634 41.3152 274.032C42.4314 302.591 43.7229 310.758 48.5527 319.819C54.4113 330.812 62.7115 335.55 80.7281 338.19C91.0176 339.698 107.621 339.893 228.884 339.936C373.03 339.987 380.701 339.772 394.426 335.284C405.049 331.811 412.65 323.753 415.874 312.548C418.832 302.268 419.559 279.686 419.553 198.275C419.544 93.2252 418.942 84.9683 410.783 77.8039C404.103 71.9392 406.504 72.0195 245.18 72.2422C107.767 72.4318 97.9759 72.3298 96.0753 70.6838C92.942 67.9699 92.5152 64.9644 94.8415 62.0063C96.1345 60.363 98.1078 59.4009 100.199 59.3942L242.784 58.94C346.135 58.6112 389.008 58.1473 389.804 57.3516C391.435 55.72 389.243 49.7842 385.785 46.4716C384.239 44.9904 381.119 42.9486 378.851 41.9324C374.963 40.1915 367.288 40.0781 244.345 39.9524C172.634 39.8792 105.38 40.1802 94.8931 40.6213ZM190.805 102.598C206.38 105.317 210.847 109.694 210.847 122.232C210.847 130.844 208.511 135.725 203.082 138.464C198.84 140.604 186.694 140.863 169.894 139.172C155.79 137.753 145.12 139.048 141.556 142.612C139.49 144.677 138.917 146.729 138.013 155.298C136.779 166.999 137.587 170.639 141.591 171.405C142.983 171.671 149.797 171.445 156.734 170.903C171.21 169.77 184.973 171.067 190.066 174.041C195.156 177.013 197.448 181.947 197.448 189.926C197.448 198.292 195.515 201.477 188.218 205.132C183.55 207.469 181.912 207.661 163.535 208.016C152.709 208.225 142.843 208.605 141.613 208.861C138.334 209.542 136.844 215.084 137.676 223.504C139.364 240.578 140.729 241.848 157.206 241.671C163.467 241.604 172.487 240.992 177.253 240.312C202.247 236.742 211.993 240.527 213.922 254.549C215.362 265.03 210.732 273.13 201.751 275.832C181.569 281.904 135.884 281.922 116.022 275.865C103.705 272.109 100.327 266.962 96.9967 246.876C89.3531 200.774 92.8533 128.188 103.448 113.082C107.437 107.394 120.373 103.478 142.821 101.162C154.569 99.9485 179.989 100.71 190.805 102.598ZM332.47 102.682C351.423 104.856 356.894 107.099 360.381 114.123C363.624 120.655 363.038 132.798 359.067 141.407C353.911 152.582 341.026 170.547 305.402 216.228C294.024 230.82 292.046 234.09 293.337 236.179C295.134 239.086 299.673 239.4 320.985 238.092C357.36 235.861 365.201 238.907 366.738 255.869C367.409 263.272 365.044 270.218 360.827 273.221C354.64 277.627 329.552 280.445 296.518 280.445C263.816 280.445 246.777 278.072 240.293 272.617C236.019 269.021 233.607 260.649 234.313 251.863C235.266 239.981 238.547 235.031 286.405 173.276C297.407 159.078 305.156 148.163 305.156 146.862C305.156 142.217 303.542 141.96 278.942 142.698C252.875 143.479 247.127 142.774 241.865 138.155C233.113 130.471 234.553 111.251 244.252 106.304C255.496 100.568 298.612 98.7972 332.47 102.682Z" fill="#0B53BF"/>
<path d="M1133.66 174.522C1133.66 175.389 1133.31 176.169 1132.62 176.862C1132.1 177.382 1131.41 177.642 1130.54 177.642H1105.58C1104.71 177.642 1104.28 178.076 1104.28 178.942V234.062C1104.28 239.782 1105.41 244.029 1107.66 246.802C1110.09 249.576 1113.9 250.962 1119.1 250.962H1127.68C1128.55 250.962 1129.24 251.309 1129.76 252.002C1130.45 252.522 1130.8 253.216 1130.8 254.082V278.782C1130.8 280.689 1129.76 281.816 1127.68 282.162C1120.4 282.509 1115.2 282.682 1112.08 282.682C1097.69 282.682 1086.95 280.342 1079.84 275.662C1072.73 270.809 1069.09 261.796 1068.92 248.622V178.942C1068.92 178.076 1068.49 177.642 1067.62 177.642H1052.8C1051.93 177.642 1051.15 177.382 1050.46 176.862C1049.94 176.169 1049.68 175.389 1049.68 174.522V151.382C1049.68 150.516 1049.94 149.822 1050.46 149.302C1051.15 148.609 1051.93 148.262 1052.8 148.262H1067.62C1068.49 148.262 1068.92 147.829 1068.92 146.962V116.022C1068.92 115.156 1069.18 114.462 1069.7 113.942C1070.39 113.249 1071.17 112.902 1072.04 112.902H1101.16C1102.03 112.902 1102.72 113.249 1103.24 113.942C1103.93 114.462 1104.28 115.156 1104.28 116.022V146.962C1104.28 147.829 1104.71 148.262 1105.58 148.262H1130.54C1131.41 148.262 1132.1 148.609 1132.62 149.302C1133.31 149.822 1133.66 150.516 1133.66 151.382V174.522Z" fill="black"/>
<path d="M1038.51 201.302C1039.55 207.889 1039.9 215.255 1039.55 223.402C1039.38 225.482 1038.25 226.522 1036.17 226.522H955.829C954.789 226.522 954.442 226.955 954.789 227.822C955.309 231.289 956.262 234.755 957.649 238.222C962.155 247.929 971.342 252.782 985.209 252.782C996.302 252.609 1005.06 248.102 1011.47 239.262C1012.16 238.222 1012.94 237.702 1013.81 237.702C1014.33 237.702 1014.94 238.049 1015.63 238.742L1034.35 257.202C1035.22 258.069 1035.65 258.849 1035.65 259.542C1035.65 259.889 1035.3 260.582 1034.61 261.622C1028.89 268.729 1021.52 274.275 1012.51 278.262C1003.5 282.075 993.615 283.982 982.869 283.982C967.962 283.982 955.309 280.602 944.909 273.842C934.682 267.082 927.315 257.635 922.809 245.502C919.169 236.835 917.349 225.482 917.349 211.442C917.349 201.909 918.649 193.502 921.249 186.222C925.235 173.915 932.169 164.122 942.049 156.842C952.102 149.562 963.975 145.922 977.669 145.922C995.002 145.922 1008.87 150.949 1019.27 161.002C1029.84 171.055 1036.26 184.489 1038.51 201.302ZM977.929 177.642C967.009 177.642 959.815 182.755 956.349 192.982C955.655 195.235 955.049 198.009 954.529 201.302C954.529 202.169 954.962 202.602 955.829 202.602H1000.81C1001.85 202.602 1002.2 202.169 1001.85 201.302C1000.98 196.275 1000.55 193.849 1000.55 194.022C998.989 188.822 996.215 184.835 992.229 182.062C988.415 179.115 983.649 177.642 977.929 177.642Z" fill="black"/>
<path d="M863.809 281.902C862.942 281.902 862.162 281.642 861.468 281.122C860.948 280.429 860.688 279.649 860.688 278.782V103.022C860.688 102.156 860.948 101.462 861.468 100.942C862.162 100.249 862.942 99.9023 863.809 99.9023H894.228C895.095 99.9023 895.789 100.249 896.309 100.942C897.002 101.462 897.348 102.156 897.348 103.022V278.782C897.348 279.649 897.002 280.429 896.309 281.122C895.789 281.642 895.095 281.902 894.228 281.902H863.809Z" fill="black"/>
<path d="M793.438 281.902C792.572 281.902 791.792 281.642 791.098 281.122C790.578 280.429 790.318 279.649 790.318 278.782V103.022C790.318 102.156 790.578 101.462 791.098 100.942C791.792 100.249 792.572 99.9023 793.438 99.9023H823.858C824.725 99.9023 825.418 100.249 825.938 100.942C826.632 101.462 826.978 102.156 826.978 103.022V278.782C826.978 279.649 826.632 280.429 825.938 281.122C825.418 281.642 824.725 281.902 823.858 281.902H793.438Z" fill="black"/>
<path d="M712.078 146.182C723.344 146.182 733.398 148.175 742.238 152.162C751.078 155.975 757.924 161.262 762.778 168.022C767.805 174.782 770.318 182.322 770.318 190.642V278.782C770.318 279.648 769.971 280.428 769.278 281.122C768.758 281.642 768.064 281.902 767.198 281.902H736.778C735.911 281.902 735.131 281.642 734.438 281.122C733.918 280.428 733.658 279.648 733.658 278.782V270.202C733.658 269.682 733.484 269.335 733.138 269.162C732.791 268.988 732.444 269.162 732.098 269.682C724.818 279.215 713.118 283.982 696.998 283.982C683.478 283.982 672.558 280.688 664.238 274.102C655.918 267.515 651.758 257.808 651.758 244.982C651.758 231.635 656.438 221.322 665.798 214.042C675.158 206.588 688.504 202.862 705.838 202.862H732.358C733.224 202.862 733.658 202.428 733.658 201.562V195.842C733.658 190.122 731.924 185.702 728.458 182.582C724.991 179.288 719.791 177.642 712.858 177.642C707.484 177.642 702.978 178.595 699.338 180.502C695.871 182.408 693.618 185.095 692.578 188.562C692.058 190.468 690.931 191.335 689.198 191.162L657.738 187.002C655.658 186.655 654.704 185.875 654.878 184.662C655.571 177.382 658.431 170.795 663.458 164.902C668.658 159.008 675.418 154.415 683.738 151.122C692.231 147.828 701.678 146.182 712.078 146.182ZM706.878 256.682C714.331 256.682 720.658 254.688 725.858 250.702C731.058 246.715 733.658 241.602 733.658 235.362V226.002C733.658 225.135 733.224 224.702 732.358 224.702H713.638C705.838 224.702 699.684 226.175 695.178 229.122C690.844 232.068 688.678 236.228 688.678 241.602C688.678 246.282 690.324 250.008 693.618 252.782C696.911 255.382 701.331 256.682 706.878 256.682Z" fill="black"/>
<path d="M490.893 281.902C488.986 281.902 487.773 281.035 487.253 279.302L449.813 151.642L449.553 150.602C449.553 148.869 450.506 148.002 452.413 148.002H483.873C485.779 148.002 486.993 148.869 487.513 150.602L506.233 229.122C506.406 229.642 506.666 229.902 507.013 229.902C507.359 229.902 507.619 229.642 507.793 229.122L527.293 150.602C527.813 148.869 529.026 148.002 530.933 148.002H558.233C560.139 148.002 561.353 148.869 561.873 150.602L582.413 229.382C582.586 229.902 582.846 230.162 583.193 230.162C583.539 230.162 583.799 229.902 583.973 229.382L604.253 150.602C604.773 148.869 605.986 148.002 607.893 148.002L639.093 148.522C640.133 148.522 640.826 148.869 641.173 149.562C641.693 150.082 641.866 150.862 641.693 151.902L603.733 279.302C603.213 281.035 602.086 281.902 600.353 281.902H568.893C566.986 281.902 565.773 281.035 565.253 279.302L545.233 209.622C545.059 209.102 544.799 208.842 544.453 208.842C544.106 208.842 543.846 209.102 543.673 209.622L525.993 279.302C525.473 281.035 524.259 281.902 522.353 281.902H490.893Z" fill="black"/>
</svg>
