<svg width="618" height="260" viewBox="0 0 618 260" fill="none" xmlns="http://www.w3.org/2000/svg">
<path d="M40.6055 89.207V49.207C40.6055 43.6842 45.0826 39.207 50.6055 39.207H90.6055C96.1283 39.207 100.605 43.6842 100.605 49.207C100.605 54.7299 96.1283 59.207 90.6055 59.207H60.6055V89.207C60.6055 94.7299 56.1283 99.207 50.6055 99.207C45.0826 99.207 40.6055 94.7299 40.6055 89.207Z" fill="black"/>
<path d="M40.6055 169.207C40.6055 163.684 45.0826 159.207 50.6055 159.207C56.1283 159.207 60.6055 163.684 60.6055 169.207V199.207H90.6055C96.1283 199.207 100.605 203.684 100.605 209.207C100.605 214.73 96.1283 219.207 90.6055 219.207H50.6055C45.0826 219.207 40.6055 214.73 40.6055 209.207V169.207Z" fill="black"/>
<path d="M200.605 169.207C200.605 163.684 205.083 159.207 210.605 159.207C216.128 159.207 220.605 163.684 220.605 169.207V209.207C220.605 214.73 216.128 219.207 210.605 219.207H170.605C165.083 219.207 160.605 214.73 160.605 209.207C160.605 203.684 165.083 199.207 170.605 199.207H200.605V169.207ZM200.605 89.207V59.207H170.605C165.083 59.207 160.605 54.7299 160.605 49.207C160.605 43.6842 165.083 39.207 170.605 39.207H210.605C216.128 39.207 220.605 43.6842 220.605 49.207V89.207C220.605 94.7299 216.128 99.207 210.605 99.207C205.083 99.207 200.605 94.7299 200.605 89.207Z" fill="black"/>
<path d="M110.605 79.207C116.128 79.2071 120.605 83.6842 120.605 89.207C120.605 94.7299 116.128 99.207 110.605 99.207H90.3926V119.207H100.812C106.335 119.207 110.812 123.684 110.812 129.207C110.812 134.73 106.335 139.207 100.812 139.207H90.3926V159.207H110.605C116.128 159.207 120.605 163.684 120.605 169.207C120.605 174.73 116.128 179.207 110.605 179.207H80.3926C74.8697 179.207 70.3926 174.73 70.3926 169.207V89.207C70.3926 83.6842 74.8697 79.207 80.3926 79.207H110.605ZM180.844 79.207C184.128 79.207 187.205 80.8195 189.072 83.5215C190.939 86.2233 191.36 89.6701 190.199 92.7422L165.076 159.207H180.844C186.367 159.207 190.844 163.684 190.844 169.207C190.844 174.73 186.367 179.207 180.844 179.207H150.605C147.321 179.207 144.246 177.594 142.379 174.893C140.512 172.191 140.091 168.744 141.252 165.672L166.375 99.207H150.605C145.083 99.207 140.605 94.7299 140.605 89.207C140.605 83.6842 145.083 79.207 150.605 79.207H180.844Z" fill="black"/>
<path d="M291.744 107.299C292.796 101.878 298.047 98.3364 303.468 99.389C308.889 100.442 312.431 105.69 311.378 111.112L297.779 181.155C296.884 185.761 292.907 189.125 288.216 189.245C283.526 189.364 279.384 186.207 278.255 181.653L270.47 150.239L262.453 181.717C261.292 186.272 257.117 189.404 252.419 189.243C247.722 189.081 243.77 185.669 242.925 181.045L230.124 111.002C229.132 105.57 232.733 100.36 238.165 99.3676C243.598 98.3753 248.807 101.976 249.8 107.409L254.37 132.424L260.915 106.737L261.031 106.325C262.299 102.104 266.197 99.1911 270.638 99.2055C275.222 99.2205 279.209 102.351 280.312 106.801L286.775 132.885L291.744 107.299ZM350.607 99.2055C355.997 99.2057 360.795 101.011 364.662 104.305C368.334 107.434 370.711 111.507 372.306 115.485C375.431 123.279 376.459 133.046 376.757 142.129C377.067 151.567 376.604 161.467 376.203 169.694C376.023 173.366 375.858 176.666 375.763 179.575C375.583 185.094 370.961 189.423 365.441 189.243C361.717 189.121 358.538 186.977 356.917 183.901C352.854 185.157 348.56 186.079 344.421 186.27C339.583 186.493 333.436 185.795 328.343 181.815C322.836 177.511 320.607 171.028 320.607 164.078C320.607 156.982 322.88 150.915 326.812 146.096C330.613 141.437 335.57 138.411 340.367 136.442C345.469 134.347 350.949 133.218 356.009 132.7C355.498 128.741 354.748 125.439 353.742 122.928C352.89 120.804 352.096 119.876 351.691 119.53C351.48 119.35 351.291 119.206 350.607 119.205C347.345 119.205 345.308 120.564 343.667 122.735C341.781 125.231 340.778 128.483 340.525 130.469C339.827 135.948 334.82 139.824 329.341 139.125C323.863 138.427 319.989 133.42 320.687 127.942C321.283 123.261 323.299 116.513 327.71 110.676C332.367 104.514 339.908 99.2055 350.607 99.2055ZM340.607 164.078C340.607 165.138 340.718 165.753 340.814 166.078C341.164 166.185 341.971 166.362 343.497 166.291C347.237 166.119 352.064 164.653 356.501 162.768C356.644 159.466 356.764 156.096 356.822 152.737C353.768 153.13 350.668 153.831 347.964 154.942C345.228 156.066 343.403 157.396 342.308 158.739C341.344 159.92 340.607 161.501 340.607 164.078Z" fill="#16A34A"/>
<path d="M389.618 179.145V79.8477C389.618 74.3248 394.095 69.8477 399.618 69.8477C405.141 69.8477 409.618 74.3248 409.618 79.8477V179.145C409.618 184.667 405.141 189.145 399.618 189.145C394.095 189.145 389.618 184.667 389.618 179.145ZM423.427 179.145V79.8477C423.427 74.3248 427.904 69.8477 433.427 69.8477C438.95 69.8477 443.427 74.3248 443.427 79.8477V129.496V179.145C443.427 184.667 438.95 189.145 433.427 189.145C427.904 189.145 423.427 184.667 423.427 179.145ZM465.556 109.791C471.824 101.9 480.567 98.7147 489.321 100.137C505.304 102.733 517.688 119.54 517.688 137.77C517.688 146.225 512.11 151.506 506.925 154.203C501.895 156.819 495.857 157.91 490.392 158.213C485.923 158.46 481.265 158.209 476.894 157.508C477.288 158.723 477.731 159.712 478.188 160.51C479.634 163.031 481.544 164.304 484.054 164.953C490.141 166.526 499.377 164.168 506.757 160.334C511.657 157.788 517.695 159.695 520.241 164.596C522.788 169.496 520.878 175.534 515.978 178.08C507.152 182.666 492.363 187.758 479.05 184.318C471.86 182.46 465.225 178.113 460.837 170.459C456.623 163.109 454.987 153.602 455.62 142.123C456.391 128.136 459.67 117.201 465.556 109.791ZM486.114 119.879C484.705 119.65 483.106 119.851 481.216 122.23C479.385 124.536 477.281 129.025 476.188 136.91C476.728 137.064 477.309 137.221 477.935 137.359C481.359 138.118 485.439 138.457 489.286 138.244C493.237 138.025 496.105 137.27 497.647 136.482C497.091 126.684 490.279 120.555 486.114 119.879Z" fill="#16A34A"/>
<path d="M549.947 81.2094C555.458 81.5718 559.632 86.3332 559.27 91.8442C559.011 95.7782 558.791 100.039 558.619 104.479H568.293C573.816 104.479 578.293 108.956 578.293 114.479C578.293 120.002 573.816 124.479 568.293 124.479H558.271C558.326 134.909 558.787 145.174 559.883 153.622C560.447 157.972 561.147 161.585 561.953 164.36C565.622 161.345 571.033 161.294 574.775 164.481C578.98 168.061 579.486 174.372 575.906 178.577C572.832 182.187 568.705 185.919 563.387 187.041C556.852 188.421 551.63 185.372 548.439 181.588C545.62 178.245 543.915 173.935 542.77 170.01C541.565 165.885 540.692 161.152 540.049 156.196C538.827 146.775 538.328 135.617 538.271 124.479H532.129C526.606 124.479 522.129 120.002 522.129 114.479C522.129 108.956 526.606 104.479 532.129 104.479H538.604C538.787 99.5224 539.031 94.8109 539.312 90.5317C539.675 85.0209 544.436 80.8472 549.947 81.2094Z" fill="#16A34A"/>
</svg>
