<svg width="380" height="300" viewBox="0 0 380 300" fill="none" xmlns="http://www.w3.org/2000/svg">
<path fill-rule="evenodd" clip-rule="evenodd" d="M54.5435 0.679892C29.0728 1.75285 21.0106 4.17294 12.6351 13.2596C4.30502 22.2968 2.28691 32.376 0.923289 71.755C-0.326952 107.835 -0.302215 201.692 0.965548 234.09C2.0818 262.649 3.37327 270.816 8.20314 279.877C14.0616 290.871 22.3619 295.609 40.3785 298.249C50.668 299.756 67.2716 299.951 188.535 299.995C332.68 300.046 340.352 299.831 354.077 295.343C364.699 291.869 372.3 283.811 375.524 272.607C378.483 262.326 379.209 239.745 379.203 158.334C379.195 53.2838 378.593 45.0269 370.434 37.8624C363.754 31.9978 366.154 32.0781 204.83 32.3008C67.4169 32.4904 57.6263 32.3884 55.7257 30.7424C52.5923 28.0285 52.1656 25.023 54.4919 22.0649C55.7849 20.4216 57.7582 19.4595 59.8492 19.4528L202.435 18.9985C305.785 18.6698 348.658 18.2059 349.454 17.4102C351.086 15.7786 348.893 9.84283 345.435 6.53015C343.889 5.04904 340.769 3.00722 338.502 1.99095C334.614 0.250092 326.938 0.13671 203.995 0.0109645C132.284 -0.0622153 65.0308 0.238752 54.5435 0.679892ZM150.455 62.6571C166.03 65.3761 170.497 69.7524 170.497 82.2909C170.497 90.9024 168.162 95.7838 162.732 98.5224C158.491 100.662 146.344 100.922 129.545 99.2305C115.44 97.8112 104.771 99.1068 101.206 102.671C99.1409 104.735 98.5678 106.788 97.6639 115.357C96.4291 127.057 97.2372 130.698 101.241 131.464C102.633 131.729 109.448 131.504 116.385 130.962C130.861 129.829 144.624 131.126 149.716 134.099C154.806 137.072 157.098 142.006 157.098 149.984C157.098 158.35 155.166 161.535 147.868 165.19C143.2 167.528 141.562 167.72 123.185 168.074C112.36 168.283 102.494 168.664 101.263 168.919C97.9844 169.601 96.494 175.143 97.3269 183.562C99.0141 200.637 100.38 201.907 116.857 201.73C123.117 201.663 132.138 201.05 136.904 200.37C161.897 196.801 171.643 200.585 173.572 214.607C175.013 225.088 170.382 233.189 161.401 235.89C141.219 241.963 95.5345 241.981 75.6728 235.923C63.3549 232.167 59.9773 227.021 56.6471 206.935C49.0034 160.832 52.5037 88.2463 63.0983 73.1403C67.0871 67.4529 80.0234 63.5363 102.471 61.2203C114.219 60.0071 139.639 60.7688 150.455 62.6571ZM292.12 62.7405C311.074 64.9143 316.545 67.1571 320.031 74.1813C323.274 80.7139 322.689 92.8566 318.717 101.466C313.562 112.641 300.676 130.606 265.053 176.287C253.674 190.878 251.696 194.149 252.987 196.238C254.784 199.145 259.323 199.459 280.635 198.151C317.01 195.92 324.851 198.965 326.389 215.927C327.06 223.331 324.694 230.277 320.478 233.279C314.29 237.686 289.202 240.504 256.168 240.504C223.466 240.504 206.428 238.131 199.943 232.675C195.669 229.079 193.257 220.708 193.963 211.921C194.917 200.039 198.197 195.09 246.055 133.334C257.058 119.136 264.807 108.221 264.807 106.921C264.807 102.275 263.192 102.019 238.593 102.756C212.525 103.538 206.777 102.833 201.515 98.2132C192.764 90.5293 194.203 71.3098 203.902 66.3624C215.146 60.6266 258.263 58.8558 292.12 62.7405Z" fill="url(#paint0_linear_3578_59)"/>
<defs>
<linearGradient id="paint0_linear_3578_59" x1="189.602" y1="0" x2="189.602" y2="300" gradientUnits="userSpaceOnUse">
<stop stop-color="#0088FF"/>
<stop offset="1" stop-color="#0B53BF"/>
</linearGradient>
</defs>
</svg>
