<svg width="463" height="144" viewBox="0 0 463 144" fill="none" xmlns="http://www.w3.org/2000/svg">
<path d="M442.817 57.2226C442.817 58.2194 442.319 58.7177 441.322 58.7177H430.856C430.457 58.7177 430.258 58.9171 430.258 59.3158V101.329C430.258 105.316 430.956 108.107 432.351 109.702C433.747 111.197 435.94 111.895 438.93 111.795H440.275C441.272 111.795 441.771 112.293 441.771 113.29V122.859C441.771 123.856 441.272 124.354 440.275 124.354H435.641C429.261 124.354 424.427 123.108 421.138 120.616C417.948 118.124 416.353 113.39 416.353 106.412V59.3158C416.353 58.9171 416.154 58.7177 415.755 58.7177H409.924C408.928 58.7177 408.429 58.2194 408.429 57.2226V49.747C408.429 48.7502 408.928 48.2518 409.924 48.2518H415.755C416.154 48.2518 416.353 48.0525 416.353 47.6538V30.7588C416.353 29.762 416.852 29.2637 417.849 29.2637H428.763C429.76 29.2637 430.258 29.762 430.258 30.7588V47.6538C430.258 48.0525 430.457 48.2518 430.856 48.2518H441.322C442.319 48.2518 442.817 48.7502 442.817 49.747V57.2226Z" fill="#16A34A"/>
<path d="M400.192 90.7105C400.192 91.7073 399.694 92.2057 398.697 92.2057H364.907C364.509 92.2057 364.309 92.405 364.309 92.8037V100.877C364.309 104.466 365.306 107.406 367.3 109.699C369.293 111.991 371.885 113.137 375.074 113.137C377.865 113.137 380.208 112.29 382.101 110.596C383.995 108.901 385.191 106.708 385.69 104.017C385.989 103.22 386.537 102.821 387.334 102.821L398.398 103.419C398.897 103.419 399.246 103.569 399.445 103.868C399.744 104.167 399.844 104.516 399.744 104.914C399.046 111.393 396.554 116.477 392.268 120.165C388.082 123.753 382.351 125.547 375.074 125.547C367.399 125.547 361.269 123.404 356.684 119.118C352.199 114.832 349.956 109.101 349.956 101.924V70.8253C349.956 63.7483 352.199 58.017 356.684 53.6313C361.269 49.2456 367.399 47.0527 375.074 47.0527C382.849 47.0527 388.979 49.2456 393.464 53.6313C397.95 58.017 400.192 63.7483 400.192 70.8253V90.7105ZM375.074 59.4623C371.885 59.4623 369.293 60.6086 367.3 62.9011C365.306 65.1936 364.309 68.1341 364.309 71.7224V79.6466C364.309 80.0453 364.509 80.2446 364.907 80.2446H385.391C385.789 80.2446 385.989 80.0453 385.989 79.6466V71.7224C385.989 68.1341 384.992 65.1936 382.998 62.9011C381.005 60.6086 378.364 59.4623 375.074 59.4623Z" fill="#16A34A"/>
<path d="M323.581 124.356C322.584 124.356 322.086 123.858 322.086 122.861V21.1924C322.086 20.1956 322.584 19.6973 323.581 19.6973H334.944C335.941 19.6973 336.439 20.1956 336.439 21.1924V122.861C336.439 123.858 335.941 124.356 334.944 124.356H323.581Z" fill="#16A34A"/>
<path d="M295.731 124.356C294.735 124.356 294.236 123.858 294.236 122.861V21.1924C294.236 20.1956 294.735 19.6973 295.731 19.6973H307.094C308.091 19.6973 308.59 20.1956 308.59 21.1924V122.861C308.59 123.858 308.091 124.356 307.094 124.356H295.731Z" fill="#16A34A"/>
<path d="M255.841 47.0527C263.117 47.0527 269.048 49.3453 273.633 53.9303C278.318 58.5154 280.66 64.5457 280.66 72.0214V122.856C280.66 123.853 280.162 124.351 279.165 124.351H267.802C266.805 124.351 266.307 123.853 266.307 122.856V119.567C266.307 119.367 266.207 119.218 266.008 119.118C265.908 119.018 265.758 119.068 265.559 119.268C262.07 123.454 256.937 125.547 250.159 125.547C244.478 125.547 239.444 123.952 235.058 120.763C230.772 117.473 228.629 111.692 228.629 103.419C228.629 94.7474 231.221 88.418 236.404 84.431C241.687 80.3443 248.564 78.3009 257.037 78.3009H265.709C266.107 78.3009 266.307 78.1016 266.307 77.7029V73.367C266.307 69.1807 265.31 65.8415 263.316 63.3496C261.323 60.7581 258.731 59.4623 255.542 59.4623C253.05 59.4623 250.957 60.3095 249.262 62.004C247.568 63.6985 246.571 65.8914 246.272 68.5826C246.272 69.5794 245.774 70.0777 244.777 70.0777H232.666C231.67 70.0777 231.171 69.5794 231.171 68.5826C231.669 62.2034 234.211 57.0203 238.796 53.0333C243.381 49.0462 249.063 47.0527 255.841 47.0527ZM253.299 112.988C256.788 112.988 259.828 111.892 262.419 109.699C265.011 107.506 266.307 104.416 266.307 100.429V90.262C266.307 89.8633 266.107 89.6639 265.709 89.6639H256.588C252.601 89.6639 249.412 90.7604 247.019 92.9532C244.627 95.0464 243.431 98.1363 243.431 102.223C243.431 105.811 244.328 108.503 246.122 110.297C247.917 112.091 250.309 112.988 253.299 112.988Z" fill="#16A34A"/>
<path d="M157.643 124.35C156.745 124.35 156.197 123.902 155.998 123.005L140 49.8927V49.5937C140 48.6966 140.449 48.248 141.346 48.248H152.26C153.257 48.248 153.805 48.6966 153.905 49.5937L163.175 101.176C163.274 101.375 163.374 101.475 163.474 101.475C163.573 101.475 163.673 101.375 163.773 101.176L173.192 49.5937C173.391 48.6966 173.939 48.248 174.837 48.248H184.704C185.701 48.248 186.249 48.6966 186.349 49.5937L196.067 101.176C196.167 101.375 196.267 101.475 196.366 101.475C196.466 101.475 196.566 101.375 196.665 101.176L206.085 49.5937C206.284 48.6966 206.832 48.248 207.729 48.248L218.494 48.3976C218.993 48.3976 219.342 48.5471 219.541 48.8461C219.84 49.1451 219.94 49.5438 219.84 50.0422L203.693 123.005C203.593 123.902 203.045 124.35 202.048 124.35H190.834C189.937 124.35 189.389 123.902 189.19 123.005L179.77 73.9643C179.671 73.7649 179.571 73.6653 179.471 73.6653C179.372 73.6653 179.272 73.7649 179.172 73.9643L170.052 123.005C169.952 123.902 169.404 124.35 168.407 124.35H157.643Z" fill="#16A34A"/>
<path d="M81.4951 124.356C80.4984 124.356 80 123.858 80 122.861V112.844C80 112.345 80.1495 111.747 80.4485 111.05L115.136 32.8544C115.235 32.6551 115.235 32.5055 115.136 32.4059C115.036 32.2065 114.886 32.1068 114.687 32.1068H81.4951C80.4984 32.1068 80 31.6085 80 30.6117V21.1924C80 20.1956 80.4984 19.6973 81.4951 19.6973H129.19C130.187 19.6973 130.685 20.1956 130.685 21.1924V31.2098C130.685 31.6085 130.535 32.2065 130.236 33.0039L95.3998 111.199C95.3002 111.399 95.3002 111.598 95.3998 111.797C95.4995 111.897 95.649 111.947 95.8484 111.947H129.19C130.187 111.947 130.685 112.445 130.685 113.442V122.861C130.685 123.858 130.187 124.356 129.19 124.356H81.4951Z" fill="black"/>
<path d="M70.0868 30.6117C70.0868 31.6085 69.5885 32.1068 68.5917 32.1068H34.9513C34.5526 32.1068 34.3532 32.3062 34.3532 32.7049V65.1492C34.3532 65.5479 34.5526 65.7473 34.9513 65.7473H55.5841C56.5808 65.7473 57.0792 66.2456 57.0792 67.2424V76.6617C57.0792 77.6585 56.5808 78.1568 55.5841 78.1568H34.9513C34.5526 78.1568 34.3532 78.3562 34.3532 78.7549V111.349C34.3532 111.747 34.5526 111.947 34.9513 111.947H68.5917C69.5885 111.947 70.0868 112.445 70.0868 113.442V122.861C70.0868 123.858 69.5885 124.356 68.5917 124.356H21.4951C20.4984 124.356 20 123.858 20 122.861V21.1924C20 20.1956 20.4984 19.6973 21.4951 19.6973H68.5917C69.5885 19.6973 70.0868 20.1956 70.0868 21.1924V30.6117Z" fill="black"/>
</svg>
