<svg width="500" height="396" viewBox="0 0 500 396" fill="none" xmlns="http://www.w3.org/2000/svg">
<path fill-rule="evenodd" clip-rule="evenodd" d="M71.9185 0.896474C38.334 2.31123 27.7037 5.50225 16.6601 17.4835C5.6764 29.3995 3.01541 42.6895 1.21741 94.6129C-0.431104 142.186 -0.398487 265.942 1.27313 308.661C2.74496 346.317 4.44784 357.086 10.8163 369.033C18.541 383.529 29.4854 389.776 53.2413 393.257C66.8086 395.245 88.7013 395.502 248.593 395.559C438.657 395.627 448.772 395.343 466.869 389.426C480.876 384.846 490.898 374.221 495.15 359.447C499.05 345.892 500.008 316.117 500 208.772C499.989 70.2576 499.195 59.3704 488.437 49.9237C479.629 42.1908 482.795 42.2968 270.08 42.5903C88.8929 42.8404 75.9834 42.7058 73.4774 40.5355C69.3459 36.9571 68.7832 32.9942 71.8506 29.0938C73.5555 26.927 76.1573 25.6584 78.9144 25.6496L266.921 25.0506C403.194 24.6171 459.725 24.0055 460.774 22.9563C462.925 20.805 460.035 12.9783 455.475 8.61036C453.437 6.65743 449.323 3.96518 446.333 2.62517C441.207 0.329761 431.086 0.18026 268.979 0.0144573C174.424 -0.0820342 85.7467 0.314807 71.9185 0.896474ZM198.384 82.6168C218.92 86.2019 224.81 91.9724 224.81 108.505C224.81 119.86 221.731 126.296 214.571 129.907C208.979 132.728 192.962 133.071 170.812 130.841C152.214 128.969 138.146 130.678 133.446 135.377C130.723 138.099 129.967 140.805 128.775 152.104C127.147 167.532 128.213 172.332 133.492 173.342C135.327 173.693 144.313 173.395 153.459 172.68C172.547 171.186 190.694 172.896 197.409 176.817C204.12 180.736 207.143 187.242 207.143 197.762C207.143 208.794 204.594 212.993 194.972 217.812C188.817 220.895 186.658 221.147 162.426 221.615C148.152 221.891 135.144 222.392 133.521 222.729C129.198 223.628 127.233 230.935 128.331 242.037C130.556 264.551 132.356 266.225 154.082 265.991C162.337 265.903 174.231 265.096 180.515 264.199C213.47 259.493 226.321 264.483 228.864 282.971C230.764 296.791 224.658 307.472 212.817 311.034C186.205 319.041 125.967 319.065 99.7788 311.077C83.5369 306.125 79.0834 299.34 74.6923 272.855C64.6137 212.066 69.229 116.358 83.1985 96.4395C88.458 88.9403 105.515 83.776 135.114 80.7223C150.604 79.1227 184.122 80.127 198.384 82.6168ZM385.176 82.7268C410.168 85.593 417.381 88.5503 421.979 97.8121C426.255 106.426 425.483 122.437 420.246 133.789C413.448 148.523 396.458 172.211 349.487 232.444C334.483 251.684 331.875 255.996 333.578 258.751C335.947 262.583 341.932 262.998 370.033 261.273C417.996 258.331 428.334 262.347 430.362 284.712C431.246 294.474 428.127 303.633 422.567 307.592C414.409 313.401 381.329 317.117 337.772 317.117C294.652 317.117 272.186 313.989 263.636 306.795C258 302.053 254.82 291.015 255.751 279.43C257.008 263.763 261.334 257.237 324.437 175.809C338.945 157.088 349.162 142.696 349.162 140.981C349.162 134.855 347.034 134.517 314.598 135.49C280.226 136.52 272.647 135.591 265.709 129.499C254.169 119.368 256.068 94.0259 268.856 87.5025C283.682 79.9395 340.533 77.6046 385.176 82.7268Z" fill="#0B53BF"/>
</svg>
