<svg preserveAspectRatio="none" overflow="visible" style="display: block;" width="81.6434" height="70" viewBox="0 0 81.6434 70" fill="none" xmlns="http://www.w3.org/2000/svg">
<g id="Group 1739332822">
<path id="Vector (Stroke)" d="M75.7397 24.3561C75.7397 21.7441 73.7024 19.6055 71.1323 19.446C71.0294 19.4396 70.9253 19.4364 70.82 19.4364H10.8234C10.4128 19.4364 10.0178 19.4854 9.64247 19.5776L9.46759 19.6247L9.27637 19.6833C7.31499 20.3319 5.90367 22.183 5.90367 24.3561V59.1766C5.90367 61.4251 7.4144 63.329 9.482 63.9128C9.90499 64.0322 10.3543 64.0963 10.8234 64.0963H70.82C73.5371 64.0963 75.7397 61.8937 75.7397 59.1766V24.3561ZM66.398 9.55272C65.6948 6.92822 62.9968 5.37012 60.3723 6.07336L60.3675 6.07528L32.3539 13.5327H67.4646L66.398 9.55272ZM81.6434 59.1766C81.6434 65.1542 76.7976 70 70.82 70H10.8234C9.80664 70 8.81807 69.8589 7.87829 69.5935C3.33448 68.3107 0 64.1369 0 59.1766V24.3561C0 19.4073 3.31906 15.241 7.84658 13.9478L7.8975 13.9334L8.1704 13.8604L58.8445 0.372435V0.371474C64.6184 -1.17564 70.5538 2.25099 72.1009 8.02491L73.6787 13.9161C78.2698 15.1706 81.6434 19.3679 81.6434 24.3561V59.1766Z" fill="#0B53BF"/>
<path id="Ellipse 7 (Stroke)" d="M27.6665 25.4343C31.4247 25.4343 34.7213 26.786 37.1331 29.323C39.5114 31.8247 40.8264 35.2595 41.1189 39.1231C41.1809 39.9423 40.8982 40.7508 40.3396 41.3533C39.7811 41.9555 38.997 42.2978 38.1757 42.2978H19.1021C19.2191 45.1279 19.9346 47.3714 21.1229 48.8914C22.3337 50.4404 24.3015 51.5876 27.6665 51.5877C29.4729 51.5877 30.7915 51.3036 31.9511 50.7085C33.1334 50.1016 34.3798 49.0538 35.8455 47.1695C36.8465 45.8828 38.7011 45.6507 39.9879 46.6516C41.2746 47.6525 41.5065 49.5072 40.5058 50.794C38.7074 53.106 36.8346 54.8376 34.6464 55.9606C32.4354 57.0954 30.1311 57.4913 27.6665 57.4913C22.7598 57.4913 18.9601 55.7113 16.4712 52.5274C14.0744 49.4612 13.1793 45.4593 13.1793 41.4628C13.1793 41.2578 13.1826 40.5633 13.1898 39.9946C13.1933 39.72 13.1983 39.4365 13.2052 39.2538C13.2069 39.2085 13.2099 39.1419 13.2148 39.0731C13.217 39.0427 13.2221 38.9753 13.2321 38.8944C13.2369 38.8559 13.2474 38.7769 13.2667 38.6791C13.2674 38.6756 13.2712 38.666 13.2744 38.6503C14.0965 30.6808 20.2379 25.4344 27.6665 25.4343ZM64.8537 25.4343C66.4838 25.4345 67.8055 26.756 67.8055 28.3862V29.5037C67.8054 30.1658 67.5828 30.809 67.1732 31.3293L51.2274 51.5877H65.7329C67.3629 51.5878 68.6846 52.9094 68.6847 54.5395C68.6847 56.1697 67.363 57.4912 65.7329 57.4913H46.0915C44.4612 57.4913 43.1396 56.1698 43.1396 54.5395V53.3403C43.1397 52.6782 43.3624 52.0349 43.7719 51.5146L59.6534 31.338H45.1479C43.5176 31.338 42.196 30.0164 42.196 28.3862C42.196 26.7559 43.5176 25.4343 45.1479 25.4343H64.8537ZM13.2321 39.5641C13.2331 39.5738 13.236 39.5872 13.2379 39.6035C13.2344 39.5633 13.2273 39.5231 13.2254 39.4824C13.2263 39.4974 13.2283 39.5269 13.2321 39.5641ZM27.6665 31.338C24.1931 31.338 21.2158 33.1801 19.8622 36.3942H34.607C34.178 35.1418 33.5696 34.1429 32.8543 33.3904C31.6469 32.1205 29.9424 31.338 27.6665 31.338Z" fill="#0B53BF"/>
</g>
</svg>
