<svg width="131" height="131" viewBox="0 0 131 131" fill="none" xmlns="http://www.w3.org/2000/svg">
<rect width="131" height="131" fill="white"/>
<path d="M70.2081 105.546C69.4454 105.546 69.064 105.165 69.064 104.402V96.7364C69.064 96.355 69.1784 95.8974 69.4072 95.3634L95.9518 35.5237C96.0281 35.3712 96.0281 35.2567 95.9518 35.1805C95.8755 35.0279 95.7611 34.9516 95.6085 34.9516H70.2081C69.4454 34.9516 69.064 34.5702 69.064 33.8075V26.5992C69.064 25.8365 69.4454 25.4551 70.2081 25.4551H106.707C107.47 25.4551 107.851 25.8365 107.851 26.5992V34.2651C107.851 34.5702 107.737 35.0279 107.508 35.6381L80.8488 95.4778C80.7726 95.6304 80.7726 95.7829 80.8488 95.9355C80.9251 96.0118 81.0395 96.0499 81.1921 96.0499H106.707C107.47 96.0499 107.851 96.4313 107.851 97.1941V104.402C107.851 105.165 107.47 105.546 106.707 105.546H70.2081Z" fill="#16A34A"/>
<path d="M61.4779 33.8075C61.4779 34.5702 61.0965 34.9516 60.3337 34.9516H34.5901C34.285 34.9516 34.1324 35.1042 34.1324 35.4093V60.2376C34.1324 60.5427 34.285 60.6953 34.5901 60.6953H50.3795C51.1423 60.6953 51.5237 61.0767 51.5237 61.8395V69.0477C51.5237 69.8105 51.1423 70.1918 50.3795 70.1918H34.5901C34.285 70.1918 34.1324 70.3444 34.1324 70.6495V95.5923C34.1324 95.8974 34.285 96.0499 34.5901 96.0499H60.3337C61.0965 96.0499 61.4779 96.4313 61.4779 97.1941V104.402C61.4779 105.165 61.0965 105.546 60.3337 105.546H24.2926C23.5298 105.546 23.1484 105.165 23.1484 104.402V26.5992C23.1484 25.8365 23.5298 25.4551 24.2926 25.4551H60.3337C61.0965 25.4551 61.4779 25.8365 61.4779 26.5992V33.8075Z" fill="#16A34A"/>
</svg>
