<svg width="260" height="260" viewBox="0 0 260 260" fill="none" xmlns="http://www.w3.org/2000/svg">
<path d="M40.6055 89.207V49.207C40.6055 43.6842 45.0826 39.207 50.6055 39.207H90.6055C96.1283 39.207 100.605 43.6842 100.605 49.207C100.605 54.7299 96.1283 59.207 90.6055 59.207H60.6055V89.207C60.6055 94.7299 56.1283 99.207 50.6055 99.207C45.0826 99.207 40.6055 94.7299 40.6055 89.207Z" fill="black"/>
<path d="M40.6055 169.207C40.6055 163.684 45.0826 159.207 50.6055 159.207C56.1283 159.207 60.6055 163.684 60.6055 169.207V199.207H90.6055C96.1283 199.207 100.605 203.684 100.605 209.207C100.605 214.73 96.1283 219.207 90.6055 219.207H50.6055C45.0826 219.207 40.6055 214.73 40.6055 209.207V169.207Z" fill="black"/>
<path d="M200.605 169.207C200.605 163.684 205.083 159.207 210.605 159.207C216.128 159.207 220.605 163.684 220.605 169.207V209.207C220.605 214.73 216.128 219.207 210.605 219.207H170.605C165.083 219.207 160.605 214.73 160.605 209.207C160.605 203.684 165.083 199.207 170.605 199.207H200.605V169.207ZM200.605 89.207V59.207H170.605C165.083 59.207 160.605 54.7299 160.605 49.207C160.605 43.6842 165.083 39.207 170.605 39.207H210.605C216.128 39.207 220.605 43.6842 220.605 49.207V89.207C220.605 94.7299 216.128 99.207 210.605 99.207C205.083 99.207 200.605 94.7299 200.605 89.207Z" fill="black"/>
<path d="M110.605 79.207C116.128 79.2071 120.605 83.6842 120.605 89.207C120.605 94.7299 116.128 99.207 110.605 99.207H90.3926V119.207H100.812C106.335 119.207 110.812 123.684 110.812 129.207C110.812 134.73 106.335 139.207 100.812 139.207H90.3926V159.207H110.605C116.128 159.207 120.605 163.684 120.605 169.207C120.605 174.73 116.128 179.207 110.605 179.207H80.3926C74.8697 179.207 70.3926 174.73 70.3926 169.207V89.207C70.3926 83.6842 74.8697 79.207 80.3926 79.207H110.605ZM180.844 79.207C184.128 79.207 187.205 80.8195 189.072 83.5215C190.939 86.2233 191.36 89.6701 190.199 92.7422L165.076 159.207H180.844C186.367 159.207 190.844 163.684 190.844 169.207C190.844 174.73 186.367 179.207 180.844 179.207H150.605C147.321 179.207 144.246 177.594 142.379 174.893C140.512 172.191 140.091 168.744 141.252 165.672L166.375 99.207H150.605C145.083 99.207 140.605 94.7299 140.605 89.207C140.605 83.6842 145.083 79.207 150.605 79.207H180.844Z" fill="black"/>
</svg>
